<?xml version="1.0" encoding="UTF-8" standalone="no"?>
<svg
   xmlns:dc="http://purl.org/dc/elements/1.1/"
   xmlns:cc="http://creativecommons.org/ns#"
   xmlns:rdf="http://www.w3.org/1999/02/22-rdf-syntax-ns#"
   xmlns:svg="http://www.w3.org/2000/svg"
   xmlns="http://www.w3.org/2000/svg"
   xmlns:sodipodi="http://sodipodi.sourceforge.net/DTD/sodipodi-0.dtd"
   xmlns:inkscape="http://www.inkscape.org/namespaces/inkscape"
   inkscape:version="1.0 (6e3e5246a0, 2020-05-07)"
   sodipodi:docname="pokemon-logo (1).svg"
   version="1.1"
   id="svg2"
   xml:space="preserve"
   width="710.61499"
   height="343.47699"
   viewBox="0 0 710.61499 343.47699"><sodipodi:namedview
     inkscape:current-layer="svg2"
     inkscape:window-maximized="1"
     inkscape:window-y="27"
     inkscape:window-x="0"
     inkscape:cy="470.07646"
     inkscape:cx="408"
     inkscape:zoom="0.78882576"
     showgrid="false"
     id="namedview340"
     inkscape:window-height="1016"
     inkscape:window-width="1920"
     inkscape:pageshadow="2"
     inkscape:pageopacity="0"
     guidetolerance="10"
     gridtolerance="10"
     objecttolerance="10"
     borderopacity="1"
     bordercolor="#666666"
     pagecolor="#ffffff" /><metadata
     id="metadata8"><rdf:RDF><cc:Work
         rdf:about=""><dc:format>image/svg+xml</dc:format><dc:type
           rdf:resource="http://purl.org/dc/dcmitype/StillImage" /><dc:title></dc:title></cc:Work></rdf:RDF></metadata><defs
     id="defs6"><clipPath
       clipPathUnits="userSpaceOnUse"
       id="clipPath18"><path
         d="m 292.843,492.214 6.305,-7.642 c -5.716,-2.392 -10.692,-5.653 -14.795,-9.583 v 0 l -31.251,27.459 -10.95,-21.108 0.428,20.17 -48.877,-16.142 1.248,-26.314 8.316,2.261 1.238,-13.336 c -9.493,4.18 -20.901,3.975 -31.497,-0.638 v 0 c -3.133,-1.382 -6.067,-3.103 -8.772,-5.095 v 0 c 1.836,8.146 1.401,16.155 -1.686,23.26 v 0 c -3.646,8.391 -10.058,15.304 -17.927,19.619 v 0 c -5.516,3.623 -12.094,5.854 -18.986,6.555 v 0 c -16.893,2.794 -37.196,-0.469 -57.17,-9.19 v 0 c -7.348,-3.208 -14.206,-6.863 -20.384,-10.866 v 0 l -7.814,-5.061 4.716,-7.937 14.628,-24.623 c 0,0 4.497,-7.567 4.518,-7.556 v 0 l 7.932,3.967 1.102,0.551 36.361,-80.991 3.495,-7.784 8.145,2.694 19.69,6.516 8.623,2.852 -2.28,8.757 -10.454,40.13 c 3.014,2.251 5.817,4.65 8.402,7.159 v 0 c -0.572,-4.822 -0.278,-9.677 1.032,-14.323 v 0 c 2.738,-9.718 9.113,-17.363 17.954,-21.526 v 0 c 9.549,-4.498 21.205,-4.389 31.979,0.299 v 0 c 5.409,2.37 10.223,5.753 14.285,9.801 v 0 l 1.485,-15.992 34.461,5.434 -0.046,30.988 72.024,-34.949 v 34.564 c 2.91,0.265 5.855,0.754 8.817,1.5 v 0 c 7.943,2.002 14.707,4.719 20.736,8.392 v 0 l -3.025,-18.569 38.832,-5.733 2.147,14.045 10.144,-18.681 6.186,12.038 2.262,-19.627 44.038,-7.327 -2.338,14.827 c 6.02,-0.616 12.38,0.245 18.514,2.625 v 0 c 1.471,0.575 2.894,1.234 4.279,1.954 v 0 l -1.772,-15.832 29.307,-3.805 0.239,-12.04 30.537,-9.31 39.8,120.587 -41.435,9.642 -3.934,-16.291 -3.636,17.978 -48.685,10.224 0.356,-27.116 7.332,-1.559 -0.548,-4.91 c -0.073,0.038 -0.139,0.079 -0.211,0.116 v 0 c -9.074,4.734 -20.346,5.094 -30.972,0.972 v 0 c -3.544,-1.397 -6.847,-3.244 -9.865,-5.434 v 0 l -7.314,46.376 -32.381,-0.339 -0.906,-5.336 -34.066,-0.355 -3.9,-23.945 -2.83,3.463 c -8.257,10.097 -20.222,15.576 -33.48,15.717 v 0 l 28.921,15.874 -20.17,29.968 z m 53.913,-39.897 6.791,7.318 2.037,2.196 -2.473,-15.181 z m -84.503,-12.733 9.253,9.105 c -0.396,-4.158 -0.188,-8.473 0.683,-12.864 v 0 z"
         id="path16" /></clipPath><linearGradient
       x1="0"
       y1="0"
       x2="1"
       y2="0"
       gradientUnits="userSpaceOnUse"
       gradientTransform="matrix(-8.6e-6,-197.28273,-197.28273,8.6e-6,303.64697,537.13086)"
       spreadMethod="pad"
       id="linearGradient28"><stop
         style="stop-opacity:1;stop-color:#329ec7"
         offset="0"
         id="stop24" /><stop
         style="stop-opacity:1;stop-color:#bfe3ec"
         offset="1"
         id="stop26" /></linearGradient><clipPath
       clipPathUnits="userSpaceOnUse"
       id="clipPath38"><path
         d="M 0,792 H 612 V 0 H 0 Z"
         id="path36" /></clipPath><clipPath
       id="clipPath18-3"
       clipPathUnits="userSpaceOnUse"><path
         id="path16-6"
         d="m 292.843,492.214 6.305,-7.642 c -5.716,-2.392 -10.692,-5.653 -14.795,-9.583 v 0 l -31.251,27.459 -10.95,-21.108 0.428,20.17 -48.877,-16.142 1.248,-26.314 8.316,2.261 1.238,-13.336 c -9.493,4.18 -20.901,3.975 -31.497,-0.638 v 0 c -3.133,-1.382 -6.067,-3.103 -8.772,-5.095 v 0 c 1.836,8.146 1.401,16.155 -1.686,23.26 v 0 c -3.646,8.391 -10.058,15.304 -17.927,19.619 v 0 c -5.516,3.623 -12.094,5.854 -18.986,6.555 v 0 c -16.893,2.794 -37.196,-0.469 -57.17,-9.19 v 0 c -7.348,-3.208 -14.206,-6.863 -20.384,-10.866 v 0 l -7.814,-5.061 4.716,-7.937 14.628,-24.623 c 0,0 4.497,-7.567 4.518,-7.556 v 0 l 7.932,3.967 1.102,0.551 36.361,-80.991 3.495,-7.784 8.145,2.694 19.69,6.516 8.623,2.852 -2.28,8.757 -10.454,40.13 c 3.014,2.251 5.817,4.65 8.402,7.159 v 0 c -0.572,-4.822 -0.278,-9.677 1.032,-14.323 v 0 c 2.738,-9.718 9.113,-17.363 17.954,-21.526 v 0 c 9.549,-4.498 21.205,-4.389 31.979,0.299 v 0 c 5.409,2.37 10.223,5.753 14.285,9.801 v 0 l 1.485,-15.992 34.461,5.434 -0.046,30.988 72.024,-34.949 v 34.564 c 2.91,0.265 5.855,0.754 8.817,1.5 v 0 c 7.943,2.002 14.707,4.719 20.736,8.392 v 0 l -3.025,-18.569 38.832,-5.733 2.147,14.045 10.144,-18.681 6.186,12.038 2.262,-19.627 44.038,-7.327 -2.338,14.827 c 6.02,-0.616 12.38,0.245 18.514,2.625 v 0 c 1.471,0.575 2.894,1.234 4.279,1.954 v 0 l -1.772,-15.832 29.307,-3.805 0.239,-12.04 30.537,-9.31 39.8,120.587 -41.435,9.642 -3.934,-16.291 -3.636,17.978 -48.685,10.224 0.356,-27.116 7.332,-1.559 -0.548,-4.91 c -0.073,0.038 -0.139,0.079 -0.211,0.116 v 0 c -9.074,4.734 -20.346,5.094 -30.972,0.972 v 0 c -3.544,-1.397 -6.847,-3.244 -9.865,-5.434 v 0 l -7.314,46.376 -32.381,-0.339 -0.906,-5.336 -34.066,-0.355 -3.9,-23.945 -2.83,3.463 c -8.257,10.097 -20.222,15.576 -33.48,15.717 v 0 l 28.921,15.874 -20.17,29.968 z m 53.913,-39.897 6.791,7.318 2.037,2.196 -2.473,-15.181 z m -84.503,-12.733 9.253,9.105 c -0.396,-4.158 -0.188,-8.473 0.683,-12.864 v 0 z" /></clipPath><clipPath
       id="clipPath38-3"
       clipPathUnits="userSpaceOnUse"><path
         id="path36-5"
         d="M 0,792 H 612 V 0 H 0 Z" /></clipPath></defs><rect
     y="317.25363"
     x="-3.1279497"
     height="390.46628"
     width="821.73462"
     id="rect342"
     style="fill:none;fill-rule:evenodd" /><rect
     y="317.25363"
     x="-3.1279497"
     height="390.46628"
     width="821.73462"
     id="rect346"
     style="fill:none" /><rect
     style="fill:none"
     id="rect350"
     width="821.73462"
     height="390.46628"
     x="-573.13379"
     y="230.71645"
     ry="27.411011" /><g
     inkscape:export-ydpi="96"
     inkscape:export-xdpi="96"
     transform="matrix(1.3333333,0,0,-1.3333333,-52.75894,728.12712)"
     id="g10"><g
       id="g12"><g
         clip-path="url(#clipPath18-3)"
         id="g14"><g
           id="g20"><g
             id="g22"><path
               id="path30"
               style="fill:url(#linearGradient28);stroke:none"
               d="m 292.843,492.214 6.305,-7.642 c -5.716,-2.392 -10.692,-5.653 -14.795,-9.583 v 0 l -31.251,27.459 -10.95,-21.108 0.428,20.17 -48.877,-16.142 1.248,-26.314 8.316,2.261 1.238,-13.336 c -9.493,4.18 -20.901,3.975 -31.497,-0.638 v 0 c -3.133,-1.382 -6.067,-3.103 -8.772,-5.095 v 0 c 1.836,8.146 1.401,16.155 -1.686,23.26 v 0 c -3.646,8.391 -10.058,15.304 -17.927,19.619 v 0 c -5.516,3.623 -12.094,5.854 -18.986,6.555 v 0 c -16.893,2.794 -37.196,-0.469 -57.17,-9.19 v 0 c -7.348,-3.208 -14.206,-6.863 -20.384,-10.866 v 0 l -7.814,-5.061 4.716,-7.937 14.628,-24.623 c 0,0 4.497,-7.567 4.518,-7.556 v 0 l 7.932,3.967 1.102,0.551 36.361,-80.991 3.495,-7.784 8.145,2.694 19.69,6.516 8.623,2.852 -2.28,8.757 -10.454,40.13 c 3.014,2.251 5.817,4.65 8.402,7.159 v 0 c -0.572,-4.822 -0.278,-9.677 1.032,-14.323 v 0 c 2.738,-9.718 9.113,-17.363 17.954,-21.526 v 0 c 9.549,-4.498 21.205,-4.389 31.979,0.299 v 0 c 5.409,2.37 10.223,5.753 14.285,9.801 v 0 l 1.485,-15.992 34.461,5.434 -0.046,30.988 72.024,-34.949 v 34.564 c 2.91,0.265 5.855,0.754 8.817,1.5 v 0 c 7.943,2.002 14.707,4.719 20.736,8.392 v 0 l -3.025,-18.569 38.832,-5.733 2.147,14.045 10.144,-18.681 6.186,12.038 2.262,-19.627 44.038,-7.327 -2.338,14.827 c 6.02,-0.616 12.38,0.245 18.514,2.625 v 0 c 1.471,0.575 2.894,1.234 4.279,1.954 v 0 l -1.772,-15.832 29.307,-3.805 0.239,-12.04 30.537,-9.31 39.8,120.587 -41.435,9.642 -3.934,-16.291 -3.636,17.978 -48.685,10.224 0.356,-27.116 7.332,-1.559 -0.548,-4.91 c -0.073,0.038 -0.139,0.079 -0.211,0.116 v 0 c -9.074,4.734 -20.346,5.094 -30.972,0.972 v 0 c -3.544,-1.397 -6.847,-3.244 -9.865,-5.434 v 0 l -7.314,46.376 -32.381,-0.339 -0.906,-5.336 -34.066,-0.355 -3.9,-23.945 -2.83,3.463 c -8.257,10.097 -20.222,15.576 -33.48,15.717 v 0 l 28.921,15.874 -20.17,29.968 z m 53.913,-39.897 6.791,7.318 2.037,2.196 -2.473,-15.181 z m -84.503,-12.733 9.253,9.105 c -0.396,-4.158 -0.188,-8.473 0.683,-12.864 v 0 z" /></g></g></g></g><g
       id="g32"><g
         clip-path="url(#clipPath38-3)"
         id="g34"><g
           transform="translate(358.8516,456.1162)"
           id="g40"><path
             id="path42"
             style="fill:#fbc707;fill-opacity:1;fill-rule:nonzero;stroke:none"
             d="m 0,0 -6.37,5.733 6.806,7.248 2.042,2.174 z m -48.487,-2.458 c -2.449,4.479 -1.931,10.197 1.708,14.173 3.514,3.839 8.904,4.922 13.482,3.151 z m -42.571,-3.659 9.273,9.008 c -0.397,-4.155 -0.188,-8.471 0.684,-12.871 z m -136.39,-7.977 c -1.423,4.716 -4.492,14.889 -4.492,14.889 0.016,-0.055 -0.62,2.191 -1.334,4.715 2.808,0.493 5.495,0.234 7.704,-0.839 1.229,-0.596 3.361,-1.986 3.826,-4.593 1.046,-5.852 -0.979,-10.011 -5.704,-14.172 m 400.302,44.923 -3.942,-16.249 -3.644,18.016 -48.792,10.733 0.358,-27.121 7.348,-1.635 -0.551,-4.905 c -0.071,0.039 -0.139,0.082 -0.211,0.12 -9.093,4.827 -20.391,5.306 -31.039,1.294 C 88.829,9.723 85.519,7.91 82.495,5.751 l -7.33,46.452 H 42.712 L 41.804,46.876 H 7.664 L 3.756,22.973 0.918,26.464 c -8.274,10.184 -20.265,15.788 -33.551,16.067 l 28.983,15.573 -20.214,30.178 -36.537,-42.089 6.32,-7.708 c -5.729,-2.332 -10.716,-5.541 -14.828,-9.427 l -31.319,27.783 -10.974,-20.993 0.429,20.166 -48.983,-15.632 1.249,-26.327 8.335,2.174 1.241,-13.349 c -9.514,4.279 -20.947,4.193 -31.567,-0.308 -3.139,-1.35 -6.08,-3.041 -8.791,-5.005 1.841,8.127 1.405,16.141 -1.69,23.278 -3.653,8.429 -10.08,15.409 -17.966,19.806 -5.528,3.68 -12.119,5.979 -19.026,6.754 -16.93,2.97 -37.278,-0.082 -57.296,-8.594 -7.364,-3.131 -14.237,-6.715 -20.429,-10.652 l -7.83,-4.981 4.726,-7.987 14.661,-24.774 c 0,0 4.505,-7.614 4.527,-7.604 l 7.949,3.885 1.105,0.539 36.44,-81.37 3.503,-7.821 8.162,2.609 19.734,6.31 8.641,2.763 -2.285,8.779 -10.476,40.24 c 3.02,2.22 5.829,4.59 8.421,7.072 -0.575,-4.816 -0.28,-9.675 1.033,-14.335 2.743,-9.746 9.133,-17.457 17.993,-21.713 9.57,-4.597 21.251,-4.609 32.049,-0.034 5.421,2.313 10.245,5.646 14.316,9.652 l 1.488,-16.008 34.537,5.074 -0.046,30.989 72.181,-35.701 v 34.565 c 2.916,0.234 5.869,0.692 8.836,1.408 7.961,1.918 14.74,4.565 20.781,8.175 l -3.03,-18.537 38.916,-6.139 2.152,14.022 10.166,-18.786 6.199,11.973 2.267,-19.651 44.135,-7.787 -2.344,14.852 c 6.034,-0.679 12.407,0.116 18.555,2.432 1.474,0.559 2.901,1.204 4.289,1.911 l -1.776,-15.816 29.37,-4.11 0.24,-12.043 30.605,-9.629 39.885,120.173 z" /></g><g
           transform="translate(527.5996,367.8716)"
           id="g44"><path
             id="path46"
             style="fill:#1d4694;fill-opacity:1;fill-rule:nonzero;stroke:none"
             d="m 0,0 -16.933,5.063 -1.476,62.416 -8.52,-48.153 -18.477,2.938 1.316,13.883 c 12.064,10.19 18.471,26.261 14.972,40.832 -1.543,6.462 -4.852,12.071 -9.549,16.359 l 1.551,16.349 -6.974,1.863 0.476,8.732 31.829,-6.398 10.702,-50.756 10.964,45.501 24.214,-5.359 z m -59.845,36.079 c -5.921,-2.231 -11.765,-2.691 -17.007,-1.66 -3.631,0.714 -6.97,2.146 -9.842,4.213 -4.592,3.305 -7.991,8.219 -9.463,14.403 -1.763,7.395 -0.15,15.32 3.825,22.214 1.978,3.429 4.54,6.6 7.565,9.324 3.356,3.022 7.276,5.498 11.602,7.154 10.098,3.804 20.025,2.475 27.065,-2.564 2.553,-1.827 4.724,-4.141 6.386,-6.877 1.281,-2.109 2.267,-4.463 2.883,-7.042 2.132,-8.879 -0.42,-18.413 -6.026,-26.098 -2.388,-3.273 -5.328,-6.211 -8.702,-8.618 -2.537,-1.81 -5.315,-3.322 -8.286,-4.449 m -24.412,-13.272 -24.384,3.724 -6.478,42.973 -9.17,-23.71 -13.742,29.625 h -0.148 l -5.441,-34.319 -22.883,3.98 3.209,19.152 c 0.862,0.806 1.718,1.632 2.558,2.499 l 7.403,7.639 -7.181,6.463 7.638,45.591 h 23.118 l 5.764,-31.554 6.495,36.582 h 16.515 l 6.862,-44.575 c -8.736,-9.946 -12.961,-23.299 -10.044,-35.538 2.253,-9.462 8.086,-17.113 16.424,-21.543 0.845,-0.449 1.715,-0.847 2.596,-1.22 z m -112.716,34.201 c -2.253,-0.543 -4.469,-0.905 -6.642,-1.116 -16.433,-1.602 -30.21,5.959 -35.458,18.191 -0.626,1.461 -1.133,2.988 -1.507,4.574 -2.429,10.318 -0.369,19.522 4.727,26.737 1.474,2.087 3.208,4.002 5.156,5.734 4.802,4.275 10.93,7.414 17.869,9.087 15.673,3.778 29.466,-1.012 37.891,-11.382 l -29.821,-31.76 c 2.033,-0.362 5.248,0.17 7.619,0.741 7.112,1.714 11.098,5.473 14.58,9.597 l 11.921,-10.728 3.619,-3.259 c -1.586,-1.637 -3.211,-3.141 -4.893,-4.531 -6.86,-5.674 -14.695,-9.386 -25.061,-11.885 m -15.675,-30.632 -71.625,35.826 0.125,-37.531 -18.529,-2.537 -1.304,15.5 c 5.734,9.795 7.824,21.356 4.825,31.934 -1.641,5.817 -4.657,10.899 -8.772,14.934 l -2.658,31.567 -8.334,-2.174 -0.363,7.972 29.766,8.86 1.812,-30.688 21.927,30.804 21.428,-20.398 -29.951,-31.579 28.138,-11.136 c 3.159,-5.954 7.93,-11.033 13.964,-14.745 5.829,-3.586 12.484,-5.729 19.551,-6.392 z m -100.238,13.209 c -4.099,-5.684 -9.766,-10.421 -16.468,-13.28 -17.13,-7.26 -34.248,0 -38.819,16.242 -4.436,15.745 5.877,34.436 22.473,41.573 10.584,4.485 21.209,3.422 28.835,-1.753 4.718,-3.202 8.29,-7.974 9.987,-13.992 0.186,-0.654 0.337,-1.313 0.475,-1.976 0.473,-2.292 0.663,-4.626 0.586,-6.963 -0.23,-6.95 -2.791,-13.916 -7.069,-19.851 m -83.68,11.539 12.18,-46.787 -19.733,-6.309 -40.509,90.456 c -2.193,-1.155 -6.259,-3.096 -10.012,-4.942 l -14.661,24.774 c 5.849,3.72 12.231,7.027 19.036,9.921 19.104,8.123 37.298,10.534 51.89,7.973 5.143,-0.589 10.612,-2.123 15.373,-5.292 6.566,-3.688 11.578,-8.939 14.483,-15.64 7.052,-16.265 -4.732,-39.763 -28.047,-54.154 m 146.717,27.14 -9.957,3.863 9.273,9.008 c -0.397,-4.154 -0.188,-8.47 0.684,-12.871 m 55.679,84.854 10.685,-14.52 -30.559,-15.144 -2.112,3.198 z m 25.858,-61.892 2.041,2.174 -2.477,-15.155 -6.37,5.733 z M 4.106,119.074 0.164,102.825 -3.48,120.84 l -48.792,10.733 0.358,-27.12 7.348,-1.636 -0.551,-4.904 c -0.071,0.038 -0.139,0.081 -0.211,0.119 -9.093,4.828 -20.391,5.306 -31.039,1.294 -3.552,-1.359 -6.862,-3.172 -9.886,-5.33 l -7.33,46.452 h -32.453 l -0.908,-5.327 h -34.14 l -3.908,-23.904 -2.838,3.492 c -8.274,10.184 -20.265,15.788 -33.551,16.067 l 28.983,15.572 -20.214,30.178 -36.537,-42.089 6.32,-7.707 c -5.729,-2.333 -10.716,-5.542 -14.828,-9.428 l -31.319,27.784 -10.974,-20.993 0.429,20.165 -48.983,-15.632 1.249,-26.327 8.335,2.175 1.241,-13.349 c -9.514,4.278 -20.947,4.192 -31.567,-0.309 -3.139,-1.35 -6.08,-3.041 -8.791,-5.004 1.841,8.127 1.405,16.14 -1.69,23.278 -3.653,8.429 -10.08,15.409 -17.966,19.806 -5.528,3.68 -12.119,5.979 -19.026,6.753 -16.93,2.971 -37.278,-0.081 -57.296,-8.593 -7.364,-3.131 -14.237,-6.715 -20.429,-10.653 l -7.83,-4.98 4.726,-7.987 14.661,-24.775 c 0,0 4.505,-7.614 4.527,-7.603 l 7.949,3.884 1.105,0.54 36.44,-81.371 3.503,-7.82 8.162,2.609 19.734,6.309 8.641,2.763 -2.285,8.78 -10.476,40.24 c 3.02,2.22 5.829,4.59 8.421,7.071 -0.575,-4.815 -0.28,-9.674 1.033,-14.334 2.743,-9.746 9.133,-17.458 17.993,-21.713 9.57,-4.598 21.251,-4.61 32.049,-0.034 5.421,2.313 10.245,5.645 14.316,9.652 l 1.488,-16.009 34.537,5.074 -0.046,30.989 72.181,-35.7 v 34.564 c 2.916,0.234 5.869,0.693 8.836,1.408 7.961,1.919 14.74,4.565 20.781,8.176 l -3.03,-18.537 38.916,-6.139 2.152,14.022 10.166,-18.786 6.199,11.973 2.267,-19.651 44.135,-7.787 -2.344,14.852 c 6.034,-0.679 12.407,0.116 18.555,2.432 1.474,0.559 2.901,1.204 4.289,1.91 L -54.469,14.61 -25.099,10.5 -24.859,-1.543 5.746,-11.172 45.631,109 Z" /></g><g
           transform="translate(476.4395,448.4409)"
           id="g48"><path
             id="path50"
             style="fill:#1d4694;fill-opacity:1;fill-rule:nonzero;stroke:none"
             d="m 0,0 c 0.192,-0.729 0.29,-1.489 0.258,-2.272 -0.193,-4.729 -4.655,-8.388 -9.969,-8.172 -5.313,0.215 -9.465,4.224 -9.273,8.953 0.18,4.442 4.129,7.939 9.011,8.168 -0.937,0.202 -1.903,0.337 -2.9,0.377 -8.878,0.361 -16.141,-5.934 -16.46,-13.778 -0.338,-8.349 6.39,-15.211 15.134,-15.567 8.879,-0.36 16.142,5.935 16.481,14.284 C 2.4,-5.111 1.551,-2.351 0,0" /></g><g
           transform="translate(206.8701,438.8818)"
           id="g52"><path
             id="path54"
             style="fill:#1d4694;fill-opacity:1;fill-rule:nonzero;stroke:none"
             d="m 0,0 c 0,-4.733 -4.311,-8.57 -9.629,-8.57 -5.318,0 -9.629,3.837 -9.629,8.57 0,4.446 3.804,8.1 8.673,8.527 -0.944,0.163 -1.915,0.259 -2.913,0.259 -8.886,0 -15.887,-6.584 -15.887,-14.434 0,-8.357 7.001,-14.94 15.753,-14.94 8.885,0 15.888,6.583 15.888,14.94 0,2.898 -0.96,5.622 -2.606,7.908 C -0.128,1.539 0,0.783 0,0" /></g><g
           transform="translate(310.769,454.8745)"
           id="g56"><path
             id="path58"
             style="fill:#1d4694;fill-opacity:1;fill-rule:nonzero;stroke:none"
             d="m 0,0 c -2.207,4.009 -1.757,9.136 1.495,12.709 3.14,3.451 7.968,4.435 12.077,2.859 z M 21.101,17.905 C 14.142,24.239 3.364,23.732 -2.97,16.772 -9.303,9.813 -8.796,-0.965 -1.837,-7.299 c 0.579,-0.526 1.191,-0.988 1.818,-1.42 L 22.308,16.69 c -0.379,0.42 -0.78,0.826 -1.207,1.215 M 1.495,12.709 C -1.757,9.136 -2.207,4.009 0,0 L 13.572,15.568 C 9.463,17.144 4.635,16.16 1.495,12.709 M 0,0 c -2.207,4.009 -1.757,9.136 1.495,12.709 3.14,3.451 7.968,4.435 12.077,2.859 z" /></g><g
           transform="translate(131.1636,442.9961)"
           id="g60"><path
             id="path62"
             style="fill:#1d4694;fill-opacity:1;fill-rule:nonzero;stroke:none"
             d="m 0,0 c -1.35,4.44 -4.262,14.018 -4.262,14.018 0.015,-0.052 -0.589,2.063 -1.267,4.44 2.645,0.469 5.176,0.23 7.259,-0.775 1.16,-0.56 3.171,-1.866 3.615,-4.32 C 6.342,7.851 4.443,3.93 0,0 m 12.417,14.642 c -1.734,9.59 -14.215,14.957 -26.691,8.267 l 3.135,-10.982 4.936,-16.233 2.251,-7.404 c 9.35,5.942 18.771,13.075 16.369,26.352" /></g><g
           transform="translate(541.2393,365.2124)"
           id="g64"><path
             id="path66"
             style="fill:#231f20;fill-opacity:1;fill-rule:nonzero;stroke:none"
             d="M 0,0 H 4.183 V -0.614 H 2.446 V -5.156 H 1.737 v 4.542 H 0 Z" /></g><g
           transform="translate(546.0435,360.0566)"
           id="g68"><path
             id="path70"
             style="fill:#231f20;fill-opacity:1;fill-rule:nonzero;stroke:none"
             d="M 0,0 V 5.156 H 1 L 2.481,0.797 3.952,5.156 H 4.941 V 0 H 4.278 v 3.043 c 0,0.105 0.003,0.279 0.007,0.522 C 4.29,3.809 4.292,4.07 4.292,4.349 L 2.822,0 H 2.13 L 0.649,4.349 V 4.19 C 0.649,4.064 0.652,3.872 0.658,3.613 0.664,3.354 0.667,3.165 0.667,3.043 V 0 Z" /></g><g
           transform="translate(541.2393,335.1553)"
           id="g72"><path
             id="path74"
             style="fill:#231f20;fill-opacity:1;fill-rule:nonzero;stroke:none"
             d="M 0,0 H 4.183 V -0.614 H 2.446 V -5.155 H 1.737 v 4.541 H 0 Z" /></g><g
           transform="translate(546.0435,330)"
           id="g76"><path
             id="path78"
             style="fill:#231f20;fill-opacity:1;fill-rule:nonzero;stroke:none"
             d="M 0,0 V 5.155 H 1 L 2.481,0.796 3.952,5.155 H 4.941 V 0 H 4.278 v 3.042 c 0,0.106 0.003,0.28 0.007,0.523 C 4.29,3.809 4.292,4.07 4.292,4.348 L 2.822,0 H 2.13 L 0.649,4.348 V 4.19 C 0.649,4.064 0.652,3.872 0.658,3.613 0.664,3.354 0.667,3.164 0.667,3.042 V 0 Z" /></g><g
           transform="translate(161.7295,320.8813)"
           id="g80"><path
             id="path82"
             style="fill:#ffffff;fill-opacity:1;fill-rule:nonzero;stroke:none"
             d="m 0,0 c -0.602,-3.127 -1.132,-6.472 -1.369,-9.096 -0.19,-2.615 0.406,-4.861 0.329,-6.114 -0.165,-1.26 -1.611,-2.267 -2.573,-2.498 -0.963,-0.192 -2.127,-0.26 -2.642,1.297 -0.256,0.756 -0.315,2.355 -0.151,4.365 0.206,2.339 0.478,4.066 0.728,5.433 -9.173,-9.232 -17.872,-15.001 -25.316,-17.041 -6.699,-1.494 -9.315,2.221 -8.902,8.559 1.289,11.065 10.937,27.564 18.109,36.968 1.626,2.063 4.266,4.2 5.583,4.731 0.981,0.362 2.009,0.284 2.409,-0.958 0.268,-0.682 0.365,-1.78 0.487,-2.725 0.043,-1.119 0.15,-1.997 0.125,-2.371 -0.064,-0.615 -0.402,-1.798 -1.158,-2.047 -0.338,-0.091 -0.723,-0.193 -1.196,-0.179 -0.401,0.039 -0.908,0.099 -1.176,0.036 -0.338,-0.095 -1.233,-0.401 -2.381,-1.78 -4.854,-6.158 -12.402,-17.903 -13.744,-30.385 -0.287,-4.229 1.351,-5.376 4.179,-4.768 4.333,1.233 14.106,8.027 20.667,15.558 0.439,0.43 0.712,0.792 1.093,1.278 -0.894,-0.206 -1.646,-0.839 -4.041,-2.029 -2.396,-1.267 -3.425,-2.258 -5.143,-2.665 -1.721,-0.306 -2.613,1.133 -2.557,2.295 0.141,1.17 1.292,3.177 2.664,3.553 1.376,0.324 3.227,1.097 5.904,2.362 3.729,1.779 8.658,4.182 9.693,4.509 C 0.103,6.36 0.857,5.815 0.799,4.744 0.673,3.308 0.612,3.2 0,0" /></g><g
           transform="translate(182.2534,321.5908)"
           id="g84"><path
             id="path86"
             style="fill:#ffffff;fill-opacity:1;fill-rule:nonzero;stroke:none"
             d="M 0,0 C 0.387,5.564 -1.329,10.512 -3.241,10.365 -5.214,9.748 -8.917,3.026 -9.609,-3.53 c -0.4,-5.449 1.035,-7.03 3.16,-6.731 C -3.987,-9.668 -0.61,-5.641 0,0 m -8.153,13.473 c 0.852,0.82 0.718,2.024 2.504,2.444 1.718,0.328 2.022,-0.307 3.603,-0.02 C 1.25,16.386 8.042,13.269 7.436,2.646 6.204,-7.926 -1.944,-13.658 -7.701,-14.933 c -5.833,-0.963 -10.105,0.683 -9.535,9.583 0.647,6.056 4.447,13.976 9.083,18.823" /></g><g
           transform="translate(192.7354,331.9692)"
           id="g88"><path
             id="path90"
             style="fill:#ffffff;fill-opacity:1;fill-rule:nonzero;stroke:none"
             d="m 0,0 c -1.232,-0.163 -1.922,0.868 -1.879,1.785 0.151,1.461 0.813,3.061 2.389,3.401 0.891,0.174 1.741,0.675 2.495,0.821 0.351,4.553 -0.267,7.865 0.06,11.416 0.215,1.951 1.41,4.092 3.676,4.651 2.545,0.468 3.517,-1.164 3.424,-2.881 -0.127,-1.722 -0.132,-7.422 -0.42,-11.018 0.902,0.332 1.36,0.919 2.455,1.123 1.439,0.188 2.306,-0.921 2.261,-2.677 C 14.372,5.178 13.538,4.147 12.842,3.783 11.778,3.238 10.561,2.899 9.861,2.642 9.754,1.25 9.435,-6.339 9.502,-8.43 9.448,-10.602 9.208,-17.821 9.125,-18.968 c -0.143,-1.089 -1.489,-2.614 -3.267,-2.945 -2.188,-0.305 -3.72,0.172 -3.879,1.392 -0.012,1.25 0.252,7.408 0.466,10.044 C 2.658,-7.84 2.89,-0.873 3.011,0.722 2.047,0.484 1.028,0.179 0,0" /></g><g
           transform="translate(210.873,334.8437)"
           id="g92"><path
             id="path94"
             style="fill:#ffffff;fill-opacity:1;fill-rule:nonzero;stroke:none"
             d="m 0,0 c -1.23,-0.132 -1.916,0.947 -1.87,1.891 0.153,1.503 0.82,3.142 2.393,3.45 0.89,0.155 1.739,0.65 2.492,0.78 0.364,4.711 -0.238,8.21 0.106,11.946 0.222,2.053 1.424,4.281 3.687,4.785 2.538,0.4 3.499,-1.366 3.399,-3.171 C 10.07,17.874 10.043,11.895 9.745,8.173 10.646,8.49 11.105,9.084 12.198,9.266 13.632,9.42 14.495,8.243 14.445,6.43 14.351,4.942 13.518,3.904 12.822,3.547 11.761,3.018 10.542,2.7 9.844,2.453 9.735,1.024 9.402,-6.714 9.468,-8.828 9.411,-11.021 9.174,-18.235 9.09,-19.371 c -0.142,-1.077 -1.482,-2.552 -3.257,-2.841 -2.184,-0.253 -3.717,0.25 -3.874,1.458 -0.016,1.237 0.249,7.373 0.465,10.024 0.213,2.655 0.455,9.758 0.582,11.392 C 2.042,0.443 1.027,0.16 0,0" /></g><g
           transform="translate(233.2871,324.728)"
           id="g96"><path
             id="path98"
             style="fill:#ffffff;fill-opacity:1;fill-rule:nonzero;stroke:none"
             d="m 0,0 c -1.284,-1.737 -1.521,-2.542 -1.621,-3.622 -0.057,-0.949 0.507,-1.37 1.529,-1.281 3.067,0.428 5.045,2.974 5.737,3.471 1,0.617 1.922,1.146 1.79,0.998 0.18,2.104 0.41,4.83 0.453,7.597 C 5.869,5.641 2.104,2.709 0,0 m 6.902,-4.354 c -3.109,-3.129 -7.586,-4.719 -10.86,-5.142 -3.271,-0.337 -4.955,0.225 -4.901,2.47 0.384,3.978 3.327,7.652 7.252,11.217 3.181,3.089 6.717,6.115 7.676,6.983 0.587,0.519 1.177,0.868 1.659,1.005 -0.15,2.468 -0.808,5.103 -2.918,4.961 -1.911,-0.298 -4.603,-2.37 -5.828,-3.762 -0.19,-0.232 -1.163,-1.539 -1.846,-1.668 -1.158,-0.095 -2.8,0.853 -2.704,2.873 0.118,1.136 0.615,1.942 1.273,2.617 2.169,1.968 8.645,6.004 11.104,6.435 2.115,0.24 5.779,-0.292 7.486,-11.3 0.771,-4.443 0.349,-10.449 0.243,-11.709 -0.119,-1.324 -0.626,-4.859 -1.74,-7.319 -0.402,-0.772 -2.381,-1.28 -3.132,-1.366 -1.156,-0.1 -3.198,-0.066 -3.119,1.85 0.121,0.624 0.234,1.225 0.355,1.855" /></g><g
           transform="translate(273.4531,327.6909)"
           id="g100"><path
             id="path102"
             style="fill:#ffffff;fill-opacity:1;fill-rule:nonzero;stroke:none"
             d="m 0,0 c -0.189,-2.477 0.206,-3.687 2.509,-3.613 2.375,0.192 4.502,1.626 5.701,2.283 1.111,0.685 3.05,3.281 4.95,3.472 1.895,0.041 2.884,-0.973 2.841,-2.035 -0.728,-3.968 -10.412,-7.665 -15.443,-8.149 -6.906,-0.203 -7.872,3.077 -7.632,6.558 1.577,13.069 13.727,24.548 16.239,25.083 1.762,0.082 2.9,-0.686 2.718,-3.468 C 11.688,18.067 11.108,16.038 9.252,15.44 3.837,13.552 0.516,4.766 0,0" /></g><g
           transform="translate(299.4834,329.3213)"
           id="g104"><path
             id="path106"
             style="fill:#ffffff;fill-opacity:1;fill-rule:nonzero;stroke:none"
             d="m 0,0 c -1.278,-1.67 -1.514,-2.466 -1.614,-3.551 -0.055,-0.954 0.505,-1.425 1.517,-1.417 3.051,0.187 5.013,2.6 5.701,3.047 0.992,0.542 1.913,1.014 1.778,0.868 0.182,2.129 0.419,4.91 0.469,7.777 C 5.841,5.317 2.096,2.601 0,0 m 6.849,-4.979 c -3.089,-2.9 -7.534,-4.11 -10.786,-4.265 -3.247,-0.068 -4.919,0.615 -4.868,2.853 0.381,3.954 3.311,7.478 7.22,10.843 3.166,2.933 6.692,5.795 7.646,6.624 0.585,0.491 1.17,0.807 1.65,0.907 -0.138,2.609 -0.781,5.482 -2.868,5.535 -1.9,-0.131 -4.581,-2.087 -5.802,-3.456 -0.192,-0.23 -1.163,-1.528 -1.841,-1.604 -1.148,0.006 -2.772,1.167 -2.665,3.327 0.122,1.211 0.623,2.033 1.28,2.697 2.166,1.915 8.607,5.616 11.051,5.821 2.099,0.033 5.713,-1.084 7.363,-12.75 0.746,-4.717 0.315,-10.833 0.209,-12.106 -0.123,-1.339 -0.626,-4.88 -1.735,-7.248 -0.398,-0.741 -2.364,-1.086 -3.11,-1.111 -1.147,-0.005 -3.175,0.19 -3.097,2.099 0.12,0.615 0.233,1.21 0.353,1.834" /></g><g
           transform="translate(318.3379,343.4209)"
           id="g108"><path
             id="path110"
             style="fill:#ffffff;fill-opacity:1;fill-rule:nonzero;stroke:none"
             d="m 0,0 c -1.212,0.04 -1.88,1.349 -1.827,2.396 0.167,1.659 0.838,3.409 2.397,3.495 0.881,0.023 1.721,0.443 2.465,0.465 0.406,5.256 -0.128,9.462 0.267,13.825 0.255,2.4 1.464,4.82 3.699,4.919 2.49,-0.077 3.413,-2.387 3.287,-4.471 C 10.132,18.545 10.02,11.661 9.69,7.538 10.58,7.744 11.036,8.33 12.119,8.347 13.529,8.279 14.366,6.812 14.308,4.827 14.199,3.2 13.375,2.199 12.683,1.918 11.63,1.506 10.426,1.345 9.736,1.182 c -0.12,-1.546 -0.5,-9.807 -0.44,-12.028 -0.065,-2.286 -0.312,-9.599 -0.393,-10.718 -0.142,-1.058 -1.459,-2.334 -3.219,-2.388 -2.159,0.038 -3.675,0.731 -3.832,1.943 -0.016,1.23 0.252,7.397 0.474,10.135 C 2.547,-9.133 2.838,-1.513 2.972,0.268 2.018,0.175 1.013,0.014 0,0" /></g><g
           transform="translate(372.187,334.0991)"
           id="g112"><path
             id="path114"
             style="fill:#ffffff;fill-opacity:1;fill-rule:nonzero;stroke:none"
             d="m 0,0 c 0.398,5.958 -0.232,10.725 -1.744,11.012 -2.774,-0.096 -7.54,-6.696 -8.097,-11.122 -0.23,-2.733 -0.389,-6.181 -0.227,-8.012 0.209,-1.568 0.592,-3.553 0.503,-4.858 -0.161,-1.363 -1.246,-1.951 -2.529,-1.978 -3.023,0.159 -3.212,0.563 -3.616,1.396 -0.5,1.926 -1.016,12.44 -1.08,15.733 0.123,6.739 -0.523,21.876 0.247,31.942 0.738,7.793 2.358,10.382 5.858,10.22 2.069,-0.236 3.068,-2.52 2.889,-5.286 C -8.048,36.281 -8.667,32.553 -9.312,25.192 -9.711,20.119 -9.548,13.61 -9.812,8.643 -8.72,12.017 -4.046,17.596 1.882,17.389 5.942,16.858 8.05,10.43 7.179,-1.12 6.964,-3.32 5.848,-9.265 5.54,-11.852 c -0.183,-1.722 -1.161,-3.177 -4.324,-3.047 -2.064,0.288 -3.052,1.329 -2.973,2.788 C -1.537,-9.858 -0.53,-5.861 0,0" /></g><g
           transform="translate(401.3071,361.1929)"
           id="g116"><path
             id="path118"
             style="fill:#ffffff;fill-opacity:1;fill-rule:nonzero;stroke:none"
             d="M 0,0 C 1.998,3.973 3.293,8.45 4.912,8.362 7.09,7.901 8.582,4.734 8.526,3.122 8.398,2.161 7.108,-1.437 5.444,-4.536 3.912,-6.904 0.887,-9.171 -0.193,-9.14 -1.725,-8.921 -3.031,-7.846 -2.938,-5.983 -2.701,-4.125 -0.744,-1.37 0,0" /></g><g
           transform="translate(406.562,334.1592)"
           id="g120"><path
             id="path122"
             style="fill:#ffffff;fill-opacity:1;fill-rule:nonzero;stroke:none"
             d="M 0,0 C 1.274,0.619 4.982,2.087 6.067,2.732 6.212,5.181 4.94,7.244 2.747,7.581 1.596,7.511 0.259,2.58 0,0 m -0.519,-6.826 c -0.228,-3.454 1.158,-5.376 2.081,-5.551 0.941,-0.066 2.22,0.587 4.113,2.109 1.154,0.954 2.744,2.607 4.529,3.905 1.15,0.785 1.776,1.161 2.649,1.077 1.597,-0.225 2.179,-1.006 2.094,-2.329 -0.382,-2.417 -4.801,-4.92 -7.43,-6.404 -1.414,-0.808 -6.849,-4.033 -8.535,-4.01 -4.379,0.69 -5.934,6.243 -5.642,10.667 0.002,0.023 0.004,0.044 0.006,0.067 -0.353,-0.103 -0.65,-0.136 -1.253,-0.083 -0.594,0.101 -1.117,1.216 -1.075,1.989 0.189,1.955 0.734,2.33 2.756,3.101 0.044,0.511 0.085,0.998 0.129,1.51 0.911,8.986 4.778,15.868 6.672,15.912 C 7.752,14 11.845,7.528 11.792,4.535 11.615,2.435 11.542,0.42 8.946,-1.154 6.871,-2.327 0.751,-4.985 -0.426,-5.745 -0.458,-6.116 -0.487,-6.455 -0.519,-6.826" /></g><g
           transform="translate(437.9468,314.6406)"
           id="g124"><path
             id="path126"
             style="fill:#ffffff;fill-opacity:1;fill-rule:nonzero;stroke:none"
             d="m 0,0 c 0.093,0.923 1.447,12.811 1.568,16.031 0.086,2.916 -0.396,6.424 -2.102,6.828 -1.821,0.095 -6.016,-4.003 -6.589,-8.822 -0.475,-6.482 1.005,-11.079 0.825,-14.11 -0.216,-1.319 -2.733,-1.646 -3.672,-1.551 -1.731,0.253 -3.079,0.971 -3.447,1.844 -0.457,2.008 -0.59,8.345 -0.604,10.57 0.09,7.007 -0.664,11.546 -0.455,14.584 0.318,2.454 2.845,3.732 3.852,3.647 2.397,-0.381 3.693,-1.157 3.752,-6.7 2.105,3.446 5.633,6.6 9.049,6.169 2.386,-0.467 4.487,-2.323 5.16,-5.564 2.428,2.855 6.932,4.155 10.335,3.586 3.276,-0.845 4.633,-6.281 4.63,-10.228 C 22.265,13.548 22.115,8.874 21.945,5.999 21.779,3.127 21.936,-0.024 21.802,-1.8 21.612,-3.566 20.579,-5 17.439,-4.539 c -3.115,0.592 -3.409,2.076 -3.282,3.772 0.33,3.774 1.18,10.855 1.484,14.277 0.249,2.99 0.524,7.172 -1.568,7.715 C 11.936,21.555 10.76,20.693 8.118,18.267 8.082,17.961 7.941,10.291 7.796,7.623 7.625,4.756 7.601,1.609 7.459,-0.139 7.279,-1.88 6.432,-3.272 3.354,-2.935 0.56,-2.48 -0.106,-1.661 0,0" /></g><g
           transform="translate(481.6562,314.0757)"
           id="g128"><path
             id="path130"
             style="fill:#ffffff;fill-opacity:1;fill-rule:nonzero;stroke:none"
             d="m 0,0 c -1.255,-1.381 -1.491,-2.149 -1.589,-3.251 -0.058,-0.976 0.488,-1.608 1.482,-1.832 3.004,-0.506 4.923,1.564 5.599,1.866 0.977,0.329 1.895,0.611 1.745,0.48 C 7.415,-0.62 7.646,2.051 7.679,4.717 5.718,3.863 2.051,2.129 0,0 M 6.702,-6.695 C 3.659,-9.074 -0.704,-9.407 -3.9,-8.809 c -3.177,0.685 -4.813,1.862 -4.751,4.22 0.399,4.123 3.264,6.962 7.088,9.302 3.095,2.091 6.529,3.871 7.455,4.391 0.571,0.306 1.14,0.448 1.609,0.426 -0.16,2.344 -0.841,4.928 -2.873,5.48 -1.873,0.345 -4.465,-0.694 -5.644,-1.613 -0.229,-0.193 -1.12,-1.085 -1.789,-0.995 -1.121,0.274 -2.728,1.717 -2.643,3.581 0.107,1.038 0.587,1.625 1.223,2.038 2.088,1.118 8.325,2.552 10.732,2.098 2.047,-0.501 5.652,-1.84 7.386,-12.487 0.778,-4.35 0.368,-10.207 0.263,-11.473 -0.123,-1.327 -0.635,-4.922 -1.739,-7.295 -0.401,-0.739 -2.323,-0.657 -3.058,-0.508 -1.122,0.266 -3.105,1.004 -3.016,3.056 0.122,0.639 0.238,1.253 0.359,1.893" /></g><g
           transform="translate(504.543,347.6929)"
           id="g132"><path
             id="path134"
             style="fill:#ffffff;fill-opacity:1;fill-rule:nonzero;stroke:none"
             d="M 0,0 C 1.504,-0.524 3.417,-1.943 3.424,-3.634 3.321,-5.393 2.687,-8.613 2.3,-12.935 2.069,-16.532 2.978,-28.754 2.907,-32.636 2.86,-37.778 4.091,-44.73 3.995,-46.715 3.77,-48.684 2.403,-49.261 0.344,-48.792 c -1.912,0.5 -4.095,1.542 -4.173,3.328 0.023,2.112 -0.424,8.406 -0.328,14.54 0.052,6.14 -1.316,17.111 -0.703,25.459 C -4.336,-0.222 -2.643,0.796 0,0" /></g><g
           transform="translate(517.0537,343.4927)"
           id="g136"><path
             id="path138"
             style="fill:#ffffff;fill-opacity:1;fill-rule:nonzero;stroke:none"
             d="M 0,0 C 1.498,-0.546 3.42,-1.939 3.434,-3.526 3.343,-5.175 2.725,-8.182 2.354,-12.306 2.141,-15.743 3.07,-27.687 3,-31.552 2.957,-36.668 4.176,-43.755 4.075,-45.786 3.844,-47.8 2.481,-48.376 0.423,-47.859 c -1.906,0.541 -4.088,1.648 -4.159,3.477 0.021,2.159 -0.41,8.571 -0.317,14.67 0.048,6.104 -1.347,16.835 -0.765,24.73 C -4.325,-0.03 -2.638,0.842 0,0" /></g><g
           transform="translate(337.98,329.0845)"
           id="g140"><path
             id="path142"
             style="fill:#ffffff;fill-opacity:1;fill-rule:nonzero;stroke:none"
             d="m 0,0 c -0.189,-2.493 0.206,-3.747 2.489,-3.853 2.363,0.006 4.473,1.29 5.664,1.858 1.105,0.605 3.028,3.075 4.92,3.118 1.882,-0.111 2.864,-1.216 2.82,-2.28 C 15.168,-5.122 5.553,-8.072 0.547,-8.166 -6.304,-7.825 -7.27,-4.451 -7.028,-0.944 -5.442,12.207 6.63,22.978 9.138,23.281 10.884,23.191 12.012,22.29 11.827,19.477 11.63,17.389 11.056,15.382 9.209,14.938 3.821,13.498 0.518,4.796 0,0" /></g><g
           transform="translate(148.1562,343.9082)"
           id="g144"><path
             id="path146"
             style="fill:#3652ac;fill-opacity:1;fill-rule:nonzero;stroke:none"
             d="M 0,0 C 0.032,-0.079 0.052,-0.159 0.082,-0.238 0.092,-0.269 0.11,-0.295 0.121,-0.326 0.084,-0.216 0.044,-0.107 0,0 m 12.599,-17.037 c -1.464,1.304 -3.375,1.88 -5.243,1.581 -0.287,-0.045 -0.569,-0.114 -0.846,-0.205 -1.026,-0.336 -2.813,-1.189 -8.028,-3.756 l -2.134,-1.048 c -1.473,-0.715 -3.578,-1.707 -4.657,-1.972 -0.064,-0.017 -0.128,-0.034 -0.192,-0.052 -1.791,-0.511 -3.271,-1.671 -4.374,-3.084 2.519,4.986 5.294,8.91 6.743,10.82 0.931,0.063 1.661,0.258 2.047,0.366 0.096,0.028 0.192,0.057 0.287,0.09 3.196,1.089 4.59,4.187 4.828,6.723 0.007,0.068 0.012,0.136 0.015,0.203 0.034,0.582 -0.011,1.125 -0.063,1.754 -0.028,0.347 -0.06,0.74 -0.08,1.151 -0.007,0.156 -0.026,0.341 -0.047,0.497 l -0.058,0.428 c -0.135,1.023 -0.298,2.173 -0.715,3.303 -0.645,1.859 -1.92,3.326 -3.611,4.128 -1.784,0.845 -3.886,0.885 -5.918,0.111 -0.051,-0.019 -0.101,-0.039 -0.151,-0.06 -2.603,-1.079 -5.899,-4.112 -7.678,-6.418 -5.814,-7.786 -17.081,-25.894 -18.492,-39.198 -0.01,-0.093 -0.018,-0.186 -0.023,-0.28 -0.366,-6.674 2.066,-10.18 4.17,-11.944 1.997,-1.675 5.598,-3.386 11.406,-2.027 0.086,0.02 0.171,0.042 0.256,0.066 5.651,1.611 11.62,4.945 17.827,9.933 1.246,-2.552 4.069,-4.87 8.569,-3.923 0.068,0.014 0.137,0.03 0.205,0.047 2.957,0.741 6.186,3.441 6.633,7.167 0.015,0.125 0.026,0.251 0.032,0.376 0.05,0.986 -0.067,1.91 -0.192,2.889 -0.127,0.996 -0.258,2.026 -0.195,3.038 0.167,2.086 0.586,5.062 1.171,8.284 0.001,0.006 0.29,1.586 0.29,1.586 0.314,1.709 0.409,2.225 0.518,3.629 0.005,0.063 0.009,0.127 0.012,0.191 0.093,2.171 -0.749,4.214 -2.312,5.606 m -26.203,-18.921 c -1.401,-1.037 -2.713,-1.92 -3.859,-2.621 0.539,2.908 1.424,5.745 2.495,8.405 -0.031,-0.176 -0.059,-0.351 -0.078,-0.523 -0.015,-0.132 -0.024,-0.264 -0.03,-0.397 -0.066,-1.745 0.471,-3.468 1.472,-4.864" /></g><g
           transform="translate(184.2222,335.3716)"
           id="g148"><path
             id="path150"
             style="fill:#3652ac;fill-opacity:1;fill-rule:nonzero;stroke:none"
             d="m 0,0 c -2.93,2.623 -6.87,3.917 -10.291,3.387 -0.69,0.109 -1.966,0.307 -3.792,-0.06 -0.077,-0.015 -0.154,-0.033 -0.23,-0.052 -3.499,-0.861 -4.827,-3.273 -5.338,-4.232 -5.204,-5.667 -9.293,-14.479 -9.976,-21.553 -0.008,-0.078 -0.013,-0.156 -0.018,-0.234 -0.304,-5.675 1.06,-9.898 4.054,-12.552 2.847,-2.523 6.834,-3.354 11.852,-2.472 0.098,0.017 0.196,0.037 0.293,0.06 8.168,1.896 17.565,9.643 18.895,22.169 0.011,0.108 0.02,0.217 0.025,0.326 C 5.856,-7.03 2.708,-2.423 0,0" /></g><g
           transform="translate(204.0791,341.0039)"
           id="g152"><path
             id="path154"
             style="fill:#3652ac;fill-opacity:1;fill-rule:nonzero;stroke:none"
             d="m 0,0 c -0.548,0.483 -1.156,0.865 -1.802,1.156 0.007,0.425 0.013,0.857 0.019,1.256 0.017,1.299 0.036,2.643 0.069,3.172 0.124,2.774 -0.882,5.231 -2.754,6.845 -1.897,1.634 -4.45,2.24 -7.191,1.707 -0.108,-0.021 -0.216,-0.046 -0.322,-0.073 -4.199,-1.082 -7.209,-4.769 -7.669,-9.392 -0.176,-2.141 -0.084,-4.036 0.004,-5.869 0.033,-0.674 0.061,-1.336 0.081,-2.001 -2.689,-1.35 -4.452,-4.067 -4.776,-7.538 -0.009,-0.103 -0.016,-0.206 -0.02,-0.31 -0.078,-2.132 0.813,-4.251 2.385,-5.666 0.649,-0.584 1.396,-1.025 2.196,-1.329 -0.065,-1.871 -0.137,-3.76 -0.21,-4.794 -0.189,-2.668 -0.397,-8.891 -0.368,-10.345 0.004,-0.22 0.022,-0.441 0.053,-0.659 0.259,-1.833 1.223,-3.457 2.717,-4.572 1.296,-0.966 3.627,-2.001 7.379,-1.439 0.083,0.012 0.166,0.027 0.249,0.043 3.887,0.766 7.147,4.064 7.583,7.671 0.013,0.107 0.023,0.213 0.029,0.32 0.084,1.343 0.246,8.666 0.274,10.591 0.002,0.106 0,0.211 -0.004,0.317 -0.047,1.083 0.021,4.261 0.099,6.831 0.035,0.017 0.068,0.031 0.102,0.049 2.592,1.391 4.342,4.284 4.504,7.396 0.004,0.068 0.006,0.136 0.007,0.205 C 2.673,-3.815 1.738,-1.532 0,0" /></g><g
           transform="translate(221.8389,343.896)"
           id="g156"><path
             id="path158"
             style="fill:#3652ac;fill-opacity:1;fill-rule:nonzero;stroke:none"
             d="m 0,0 c -0.547,0.495 -1.155,0.889 -1.804,1.19 0.01,0.537 0.019,1.065 0.027,1.564 0.024,1.456 0.047,2.832 0.084,3.405 0.13,2.845 -0.875,5.366 -2.75,7.026 -1.854,1.642 -4.352,2.297 -7.033,1.847 -0.114,-0.019 -0.228,-0.042 -0.341,-0.069 -4.266,-0.997 -7.329,-4.749 -7.801,-9.56 -0.181,-2.215 -0.097,-4.198 -0.015,-6.117 0.03,-0.723 0.058,-1.461 0.076,-2.213 -2.703,-1.34 -4.468,-4.076 -4.792,-7.608 -0.008,-0.098 -0.015,-0.196 -0.019,-0.294 -0.081,-2.136 0.798,-4.268 2.351,-5.703 0.651,-0.601 1.406,-1.056 2.215,-1.373 -0.069,-1.965 -0.146,-3.992 -0.221,-5.072 -0.193,-2.711 -0.399,-8.925 -0.367,-10.34 0.005,-0.214 0.023,-0.428 0.053,-0.64 0.504,-3.597 3.781,-6.877 9.964,-6.098 0.085,0.011 0.169,0.024 0.253,0.038 3.947,0.685 7.256,3.948 7.699,7.59 0.012,0.105 0.022,0.212 0.028,0.318 0.083,1.309 0.244,8.647 0.275,10.594 10e-4,0.105 0,0.21 -0.004,0.315 -0.046,1.102 0.027,4.366 0.11,6.996 0.018,0.01 0.035,0.016 0.053,0.025 2.624,1.383 4.39,4.3 4.557,7.462 0.004,0.066 0.006,0.132 0.007,0.197 C 2.65,-3.875 1.725,-1.56 0,0" /></g><g
           transform="translate(228.7393,320.2476)"
           id="g160"><path
             id="path162"
             style="fill:#3652ac;fill-opacity:1;fill-rule:nonzero;stroke:none"
             d="M 0,0 C 0.006,-0.045 0.015,-0.089 0.022,-0.134 H 0.021 C 0.014,-0.089 0.006,-0.045 0,0 m -0.052,0.797 c 0.002,0.002 0.003,0.003 0.005,0.005 0,-0.028 0,-0.056 0,-0.085 0,0.027 -0.005,0.054 -0.005,0.08 M 17.474,14.32 C 15.177,28.195 8.834,30.403 3.92,29.795 3.808,29.781 3.697,29.764 3.587,29.744 -0.592,28.965 -7.901,23.863 -9.968,21.949 c -0.081,-0.076 -0.16,-0.154 -0.237,-0.234 -1.604,-1.676 -2.522,-3.655 -2.728,-5.882 -0.01,-0.101 -0.016,-0.203 -0.02,-0.304 -0.091,-2.444 0.803,-4.684 2.517,-6.307 0.556,-0.527 1.189,-0.959 1.863,-1.306 -3.241,-3.218 -6.892,-7.766 -7.371,-13.327 -0.012,-0.133 -0.019,-0.267 -0.02,-0.401 -0.032,-2.375 0.841,-4.49 2.459,-5.954 2.585,-2.34 6.093,-2.247 8.507,-1.973 0.047,0.006 0.095,0.011 0.142,0.018 1.221,0.171 4.322,0.741 7.711,2.411 1.484,-0.793 3.289,-1.097 5.395,-0.893 0.051,0.005 0.102,0.011 0.153,0.017 1.274,0.16 5.565,0.946 7.291,4.351 0.045,0.089 0.088,0.179 0.128,0.271 1.624,3.687 2.04,8.446 2.082,8.977 0.095,1.286 0.51,7.805 -0.43,12.907" /></g><g
           transform="translate(285.3037,330.0469)"
           id="g164"><path
             id="path166"
             style="fill:#3652ac;fill-opacity:1;fill-rule:nonzero;stroke:none"
             d="M 0,0 C -1.595,1.592 -3.857,2.425 -6.371,2.345 -6.515,2.34 -6.659,2.33 -6.803,2.314 -8.894,2.082 -10.558,1.061 -11.87,-0.009 c 1.053,2.321 2.389,4.211 3.457,4.597 2.579,0.86 5.762,3.188 6.283,9.395 0.004,0.053 0.008,0.105 0.011,0.158 0.163,2.958 -0.611,5.313 -2.302,7.002 -1.096,1.094 -3.064,2.361 -6.218,2.182 -0.3,-0.016 -0.599,-0.058 -0.892,-0.124 -5.103,-1.141 -18.304,-14.679 -19.941,-29.524 -0.01,-0.094 -0.018,-0.188 -0.024,-0.281 -0.219,-3.736 0.744,-6.724 2.861,-8.882 2.362,-2.408 5.767,-3.489 10.41,-3.305 0.123,0.005 0.246,0.014 0.368,0.027 4.818,0.514 18.485,4.478 19.903,12.69 0.044,0.255 0.071,0.513 0.079,0.772 C 2.185,-3.311 1.43,-1.428 0,0" /></g><g
           transform="translate(293.5034,324.8916)"
           id="g168"><path
             id="path170"
             style="fill:#3652ac;fill-opacity:1;fill-rule:nonzero;stroke:none"
             d="M 0,0 C -0.001,0.01 -0.004,0.02 -0.005,0.029 -0.004,0.02 -0.001,0.01 0,0 m -0.035,0.97 c -0.002,-0.037 0.002,-0.073 0,-0.109 0.001,0.036 -0.002,0.073 0,0.109 M 5.396,6.16 C 5.289,6.152 5.181,6.144 5.074,6.131 5.085,6.141 5.096,6.15 5.107,6.16 5.203,6.166 5.3,6.159 5.396,6.16 M 17.49,13.997 C 15.752,25.436 11.398,31.191 4.563,31.014 4.438,31.011 4.312,31.003 4.188,30.992 -0.133,30.584 -7.644,25.691 -9.761,23.78 c -0.091,-0.082 -0.179,-0.167 -0.264,-0.255 -1.624,-1.674 -2.554,-3.694 -2.762,-6.003 -0.008,-0.091 -0.014,-0.184 -0.018,-0.277 -0.097,-2.456 0.756,-4.748 2.403,-6.453 0.674,-0.698 1.455,-1.256 2.293,-1.674 -3.342,-3.102 -7.233,-7.609 -7.73,-13.383 -0.011,-0.133 -0.018,-0.267 -0.02,-0.402 -0.037,-2.931 1.228,-4.796 2.296,-5.845 2.427,-2.383 5.838,-2.561 8.193,-2.487 0.049,0.001 0.098,0.003 0.146,0.006 1.224,0.071 4.308,0.39 7.7,1.776 1.428,-0.908 3.209,-1.353 5.316,-1.323 0.056,0 0.111,0.002 0.167,0.005 1.333,0.059 5.824,0.528 7.679,4.074 0.047,0.089 0.091,0.18 0.133,0.272 1.595,3.503 2.033,8.079 2.104,8.96 0.097,1.305 0.517,7.883 -0.385,13.226" /></g><g
           transform="translate(325.2373,353.4873)"
           id="g172"><path
             id="path174"
             style="fill:#3652ac;fill-opacity:1;fill-rule:nonzero;stroke:none"
             d="m 0,0 c 0.029,1.018 0.054,2.02 0.076,2.946 0.042,1.713 0.081,3.331 0.127,4.042 0.147,2.935 -0.773,5.647 -2.52,7.522 -1.577,1.692 -3.757,2.65 -6.139,2.699 -0.138,0.003 -0.277,0 -0.415,-0.007 -4.704,-0.258 -8.227,-4.213 -8.766,-9.842 -0.2,-2.486 -0.142,-4.796 -0.087,-7.028 0.023,-0.888 0.042,-1.793 0.05,-2.712 -2.315,-1.078 -4.427,-3.479 -4.813,-7.772 -0.008,-0.089 -0.014,-0.178 -0.017,-0.267 -0.088,-2.141 0.69,-4.252 2.135,-5.792 0.684,-0.728 1.488,-1.293 2.368,-1.68 -0.088,-2.371 -0.191,-5.02 -0.281,-6.31 -0.201,-2.834 -0.408,-9.012 -0.375,-10.453 0.006,-0.212 0.023,-0.424 0.052,-0.635 0.423,-3.026 3.087,-6.575 9.201,-6.618 0.088,0 0.175,10e-4 0.263,0.005 4.222,0.172 7.903,3.339 8.382,7.209 0.013,0.11 0.024,0.222 0.03,0.333 0.083,1.326 0.253,8.895 0.287,10.75 0.002,0.101 0.001,0.202 -0.003,0.303 -0.042,1.151 0.046,4.613 0.142,7.429 2.641,1.302 4.419,4.16 4.607,7.463 0.004,0.071 0.007,0.141 0.008,0.211 C 4.382,-4.458 2.68,-1.408 0,0" /></g><g
           transform="translate(342.5205,333.4048)"
           id="g176"><path
             id="path178"
             style="fill:#3652ac;fill-opacity:1;fill-rule:nonzero;stroke:none"
             d="m 0,0 c -0.15,0.007 -0.301,0.008 -0.451,0.003 -2.521,-0.084 -4.495,-1.365 -5.917,-2.53 1.066,2.696 2.582,4.901 3.654,5.199 C -2.758,2.66 -2.802,2.648 -2.847,2.637 -0.602,3.202 3.251,5.17 3.824,12 c 0.004,0.053 0.008,0.104 0.011,0.157 0.16,2.88 -0.555,5.216 -2.123,6.944 -1.005,1.107 -2.833,2.451 -5.834,2.574 -0.315,0.013 -0.63,-0.001 -0.943,-0.042 C -10.96,20.86 -23.833,7.357 -25.43,-7.135 c -0.01,-0.094 -0.018,-0.187 -0.024,-0.281 -0.08,-1.368 -0.324,-5.53 2.716,-8.884 2.218,-2.447 5.606,-3.778 10.071,-3.954 0.125,-0.005 0.252,-0.005 0.377,-0.002 C -7.393,-20.114 6.5,-17.1 7.956,-8.654 8,-8.4 8.025,-8.143 8.034,-7.885 8.163,-3.619 4.709,-0.229 0,0" /></g><g
           transform="translate(365.2524,354.4575)"
           id="g180"><path
             id="path182"
             style="fill:#3652ac;fill-opacity:1;fill-rule:nonzero;stroke:none"
             d="m 0,0 c -0.174,0.021 -0.349,0.033 -0.524,0.038 -2.075,0.051 -4.018,-0.351 -5.802,-1.05 0.029,0.935 0.065,1.847 0.123,2.69 0.341,4.414 0.682,7.419 0.957,9.833 0.159,1.398 0.296,2.604 0.384,3.694 0.004,0.047 0.007,0.096 0.009,0.144 0.322,5.928 -2.895,10.426 -7.823,10.938 -0.124,0.013 -0.248,0.022 -0.372,0.026 -10.028,0.361 -10.977,-10.889 -11.334,-15.124 -0.464,-6.996 -0.249,-16.012 -0.076,-23.257 0.082,-3.433 0.153,-6.398 0.137,-8.468 -10e-4,-0.068 0,-0.137 0.002,-0.205 0.004,-0.129 0.554,-13.537 1.405,-16.685 0.095,-0.352 0.225,-0.694 0.388,-1.02 1.895,-3.804 5.121,-4.251 8.263,-4.384 0.135,-0.005 0.269,-0.006 0.403,-0.002 2.657,0.082 4.911,1.277 6.31,3.148 1.264,-1.46 3.183,-2.569 5.855,-2.914 0.178,-0.023 0.359,-0.038 0.538,-0.043 5.512,-0.169 9.386,2.978 9.868,8.018 0.11,1.005 0.405,2.909 0.69,4.751 0.359,2.318 0.698,4.508 0.813,5.83 C 11.435,-5.313 5.333,-0.643 0,0" /></g><g
           transform="translate(397.0039,372.4175)"
           id="g184"><path
             id="path186"
             style="fill:#3652ac;fill-opacity:1;fill-rule:nonzero;stroke:none"
             d="m 0,0 c -0.279,0.056 -0.563,0.091 -0.848,0.103 -4.959,0.216 -6.951,-4.478 -8.553,-8.251 -0.426,-1.003 -0.867,-2.036 -1.333,-2.995 -0.116,-0.213 -0.31,-0.541 -0.507,-0.873 -1.409,-2.373 -2.598,-4.529 -2.875,-6.887 -0.016,-0.141 -0.028,-0.282 -0.033,-0.424 -0.178,-4.473 2.981,-8.155 7.51,-8.755 0.206,-0.027 0.414,-0.043 0.621,-0.047 4.624,-0.086 9.057,5.257 10.245,7.135 0.08,0.127 0.155,0.258 0.225,0.391 1.493,2.852 3.267,7.266 3.531,9.426 0.022,0.178 0.035,0.357 0.039,0.537 C 8.11,-6.969 5.305,-1.067 0,0" /></g><g
           transform="translate(388.8604,330.46)"
           id="g188"><path
             id="path190"
             style="fill:#3652ac;fill-opacity:1;fill-rule:nonzero;stroke:none"
             d="M 0,0 C -0.098,-0.023 -0.197,-0.04 -0.294,-0.069 -0.197,-0.04 -0.098,-0.018 0,0 m 23.92,1.447 c 0.624,1.666 0.744,3.24 0.825,4.355 l 0.016,0.217 c 0.009,0.122 0.014,0.249 0.015,0.37 C 24.816,11.995 18.82,20.707 8.964,22.16 8.638,22.208 8.307,22.227 7.977,22.216 1.223,21.992 -2.545,10.822 -3.557,2.951 -5.089,1.734 -6.24,-0.063 -6.496,-3.032 -6.503,-3.108 -6.508,-3.184 -6.511,-3.26 c -0.094,-2.11 0.804,-4.482 2.483,-6.032 0.815,-5.704 4.001,-11.074 10.158,-11.979 0.26,-0.038 0.522,-0.058 0.785,-0.059 2.294,-0.007 4.899,1.094 10.723,4.532 l 0.403,0.237 c 3.63,2.1 9.151,5.291 9.89,10.31 0.025,0.169 0.042,0.339 0.051,0.509 0.173,3.228 -1.392,5.865 -4.062,7.189" /></g><g
           transform="translate(454.7686,329.6797)"
           id="g192"><path
             id="path194"
             style="fill:#3652ac;fill-opacity:1;fill-rule:nonzero;stroke:none"
             d="m 0,0 c -0.057,6.126 -2.405,13.763 -8.834,15.35 -0.155,0.038 -0.312,0.069 -0.469,0.094 -3.051,0.478 -6.327,-0.011 -9.228,-1.241 -1.599,1.522 -3.582,2.583 -5.827,2.999 -0.123,0.022 -0.246,0.041 -0.371,0.055 -2.677,0.309 -5.172,-0.422 -7.371,-1.733 -1.207,1.022 -2.821,1.777 -5.002,2.101 -0.133,0.019 -0.267,0.034 -0.401,0.044 -4.032,0.299 -9.005,-3.256 -9.625,-8.462 -0.013,-0.11 -0.023,-0.22 -0.029,-0.331 -0.103,-1.748 0.041,-3.681 0.206,-5.92 0.181,-2.441 0.386,-5.207 0.377,-8.675 0.025,-1.535 0.176,-8.819 0.848,-11.644 0.075,-0.314 0.177,-0.621 0.306,-0.917 1.17,-2.699 3.982,-4.538 7.716,-5.045 0.081,-0.011 0.162,-0.02 0.244,-0.028 2.302,-0.209 4.805,0.347 6.68,1.676 1.201,-1.275 3.089,-2.334 6.058,-2.785 0.095,-0.015 0.191,-0.027 0.286,-0.036 2.877,-0.285 5.261,0.333 7.086,1.839 0.058,0.048 0.12,0.108 0.179,0.159 1.323,-1.714 3.394,-2.878 6.124,-3.368 0.076,-0.014 0.153,-0.026 0.23,-0.036 2.966,-0.405 5.451,0.167 7.386,1.698 1.245,0.985 2.793,2.819 3.098,5.963 0.006,0.059 0.011,0.118 0.015,0.178 0.067,1.031 0.052,2.227 0.036,3.613 -0.015,1.312 -0.032,2.8 0.031,4.124 C -0.106,-7.353 -0.008,-2.648 0,0" /></g><g
           transform="translate(472.0171,310.918)"
           id="g196"><path
             id="path198"
             style="fill:#3652ac;fill-opacity:1;fill-rule:nonzero;stroke:none"
             d="M 0,0 C -0.001,-0.043 0,-0.087 0,-0.13 0,-0.086 0,-0.043 0,0 M 4.271,5.239 C 4.781,5.356 5.302,5.401 5.826,5.37 V 5.369 C 5.291,5.381 4.766,5.328 4.271,5.239 m 13.07,5.891 C 15.643,20.924 11.975,26.196 5.812,27.637 5.717,27.659 5.62,27.679 5.523,27.696 1.608,28.393 -5.739,26.503 -8.593,24.938 -8.727,24.865 -8.859,24.785 -8.987,24.7 c -2.132,-1.412 -3.385,-3.521 -3.624,-6.098 -0.01,-0.105 -0.017,-0.211 -0.021,-0.316 -0.123,-3.491 1.865,-6.402 4.359,-7.972 -2.803,-2.076 -6.75,-5.899 -7.273,-11.939 -0.011,-0.129 -0.018,-0.258 -0.02,-0.388 -0.046,-2.871 1.076,-7.934 9.108,-9.58 0.049,-0.011 0.099,-0.02 0.148,-0.029 2.63,-0.464 5.271,-0.406 7.73,0.106 1.248,-1.281 2.963,-2.23 5.034,-2.698 0.057,-0.013 0.114,-0.025 0.171,-0.036 2.983,-0.576 7.108,-0.042 8.913,3.36 0.054,0.102 0.104,0.205 0.152,0.31 1.62,3.581 2.058,8.448 2.102,8.991 0.131,1.79 0.473,7.845 -0.451,12.719" /></g><g
           transform="translate(501.9292,305.9912)"
           id="g200"><path
             id="path202"
             style="fill:#3652ac;fill-opacity:1;fill-rule:nonzero;stroke:none"
             d="m 0,0 c -0.331,2.688 -0.743,6.032 -0.746,8.637 0.015,1.822 -0.172,5.038 -0.389,8.76 -0.22,3.784 -0.494,8.478 -0.414,10.179 0.174,2.175 0.424,4.093 0.626,5.635 0.189,1.444 0.338,2.585 0.386,3.578 0.005,0.116 0.008,0.232 0.006,0.348 -0.063,4.35 -3.636,7.492 -7.148,8.676 -0.074,0.024 -0.149,0.048 -0.224,0.07 -3.528,1.024 -5.996,0.058 -7.445,-0.932 -3.309,-2.261 -4.036,-6.379 -4.296,-9.28 -0.004,-0.048 -0.008,-0.096 -0.011,-0.145 -0.343,-5.435 0.104,-11.653 0.497,-17.14 0.223,-3.114 0.434,-6.055 0.438,-8.158 -0.021,-3.969 0.182,-7.975 0.33,-10.9 0.075,-1.466 0.139,-2.731 0.139,-3.333 0,-0.099 0.002,-0.198 0.007,-0.297 0.101,-1.89 1.112,-6.479 8.292,-8.276 0.056,-0.014 0.113,-0.027 0.169,-0.04 3.446,-0.748 5.75,0.241 7.077,1.201 1.776,1.286 2.891,3.307 3.139,5.691 0.013,0.121 0.022,0.242 0.026,0.363 C 0.504,-4.165 0.333,-2.7 0,0" /></g><g
           transform="translate(514.2988,303.0708)"
           id="g204"><path
             id="path206"
             style="fill:#3652ac;fill-opacity:1;fill-rule:nonzero;stroke:none"
             d="m 0,0 c -0.324,2.703 -0.728,6.066 -0.733,8.636 0.015,1.853 -0.193,5.248 -0.413,8.841 -0.22,3.6 -0.492,8.063 -0.423,9.65 0.166,2.051 0.405,3.844 0.599,5.285 0.185,1.379 0.331,2.467 0.374,3.435 0.006,0.117 0.007,0.235 0.005,0.353 -0.08,4.184 -3.614,7.293 -7.079,8.517 -0.071,0.025 -0.142,0.049 -0.215,0.071 -3.598,1.108 -6.103,0.166 -7.571,-0.821 -3.267,-2.194 -3.973,-6.127 -4.219,-8.894 -0.004,-0.047 -0.008,-0.094 -0.011,-0.141 -0.324,-5.111 0.127,-11.099 0.525,-16.381 0.236,-3.127 0.458,-6.08 0.463,-8.208 -0.019,-3.934 0.178,-7.98 0.322,-10.935 0.073,-1.502 0.136,-2.799 0.137,-3.428 0,-0.089 0.002,-0.178 0.007,-0.266 0.092,-1.886 1.074,-6.482 8.169,-8.418 0.054,-0.015 0.109,-0.029 0.165,-0.043 3.444,-0.826 5.773,0.137 7.121,1.089 1.816,1.285 2.957,3.335 3.211,5.773 0.012,0.118 0.021,0.237 0.025,0.355 C 0.508,-4.309 0.326,-2.714 0,0" /></g><g
           transform="translate(156.8188,316.8462)"
           id="g208"><path
             id="path210"
             style="fill:#ffffff;fill-opacity:1;fill-rule:nonzero;stroke:none"
             d="m 0,0 c -0.558,-3.07 -1.044,-6.354 -1.25,-8.927 -0.16,-2.565 0.447,-4.76 0.384,-5.989 -0.148,-1.236 -1.556,-2.237 -2.496,-2.473 -0.942,-0.198 -2.082,-0.277 -2.602,1.243 -0.259,0.739 -0.333,2.306 -0.192,4.277 0.178,2.294 0.427,3.989 0.658,5.332 -8.895,-9.14 -17.362,-14.88 -24.637,-16.955 -6.549,-1.532 -9.15,2.082 -8.809,8.297 1.151,10.857 10.44,27.122 17.374,36.409 1.572,2.038 4.137,4.16 5.424,4.693 0.957,0.364 1.965,0.299 2.369,-0.914 0.27,-0.666 0.376,-1.742 0.506,-2.666 0.053,-1.096 0.166,-1.955 0.145,-2.322 -0.057,-0.604 -0.376,-1.766 -1.114,-2.018 -0.33,-0.092 -0.707,-0.196 -1.17,-0.187 -0.394,0.034 -0.891,0.088 -1.153,0.024 -0.33,-0.097 -1.204,-0.406 -2.315,-1.769 -4.694,-6.084 -11.973,-17.669 -13.163,-29.914 -0.238,-4.147 1.378,-5.255 4.144,-4.631 4.233,1.253 13.742,8.009 20.096,15.455 0.425,0.426 0.689,0.784 1.057,1.263 -0.873,-0.211 -1.604,-0.838 -3.939,-2.029 -2.335,-1.266 -3.334,-2.248 -5.013,-2.663 -1.683,-0.318 -2.572,1.084 -2.529,2.223 0.127,1.148 1.235,3.126 2.575,3.508 1.346,0.332 3.152,1.108 5.762,2.375 3.636,1.78 8.443,4.185 9.453,4.516 C 0.037,6.233 0.781,5.707 0.736,4.656 0.626,3.248 0.568,3.142 0,0" /></g><g
           transform="translate(176.9243,317.748)"
           id="g212"><path
             id="path214"
             style="fill:#ffffff;fill-opacity:1;fill-rule:nonzero;stroke:none"
             d="M 0,0 C 0.323,5.457 -1.408,10.288 -3.281,10.125 -5.208,9.5 -8.769,2.875 -9.381,-3.556 -9.718,-8.9 -8.296,-10.435 -6.217,-10.12 -3.81,-9.515 -0.542,-5.534 0,0 m -8.125,13.121 c 0.826,0.812 0.683,1.991 2.428,2.42 1.681,0.338 1.986,-0.28 3.531,0.017 C 1.06,16.07 7.747,13.084 7.26,2.667 6.159,-7.705 -1.768,-13.403 -7.396,-14.71 c -5.707,-1.004 -9.91,0.567 -9.441,9.294 0.573,5.941 4.218,13.741 8.712,18.537" /></g><g
           transform="translate(187.0913,328.0239)"
           id="g216"><path
             id="path218"
             style="fill:#ffffff;fill-opacity:1;fill-rule:nonzero;stroke:none"
             d="m 0,0 c -1.206,-0.171 -1.892,0.832 -1.859,1.73 0.133,1.434 0.766,3.008 2.306,3.357 0.872,0.18 1.7,0.679 2.437,0.83 0.298,4.465 -0.341,7.705 -0.055,11.188 0.19,1.914 1.339,4.024 3.554,4.595 2.489,0.485 3.459,-1.106 3.384,-2.788 -0.106,-1.69 -0.054,-7.276 -0.3,-10.802 0.881,0.334 1.324,0.914 2.395,1.124 1.408,0.2 2.269,-0.878 2.243,-2.599 C 14.031,5.22 13.225,4.2 12.546,3.836 11.509,3.292 10.32,2.947 9.637,2.688 9.546,1.324 9.31,-6.117 9.397,-8.165 c -0.031,-2.129 -0.194,-9.206 -0.264,-10.33 -0.129,-1.069 -1.432,-2.577 -3.172,-2.92 -2.141,-0.32 -3.647,0.132 -3.815,1.325 -0.024,1.226 0.173,7.262 0.356,9.848 0.182,2.586 0.339,9.416 0.441,10.98 C 2.001,0.495 1.005,0.186 0,0" /></g><g
           transform="translate(204.8364,331.0239)"
           id="g220"><path
             id="path222"
             style="fill:#ffffff;fill-opacity:1;fill-rule:nonzero;stroke:none"
             d="m 0,0 c -1.204,-0.142 -1.887,0.909 -1.852,1.833 0.136,1.476 0.772,3.088 2.31,3.406 0.872,0.161 1.698,0.655 2.435,0.79 0.31,4.619 -0.316,8.042 -0.017,11.707 0.198,2.014 1.353,4.21 3.565,4.726 C 8.924,22.88 9.883,21.16 9.803,19.389 9.688,17.617 9.722,11.757 9.467,8.107 c 0.88,0.32 1.324,0.907 2.392,1.096 1.405,0.165 2.262,-0.98 2.232,-2.757 C 14.014,4.988 13.208,3.962 12.529,3.605 11.495,3.076 10.303,2.752 9.622,2.503 9.529,1.101 9.282,-6.485 9.367,-8.556 9.333,-10.705 9.173,-17.777 9.104,-18.891 c -0.129,-1.057 -1.428,-2.516 -3.165,-2.817 -2.137,-0.27 -3.644,0.207 -3.81,1.39 -0.028,1.212 0.17,7.227 0.354,9.827 0.183,2.604 0.348,9.568 0.456,11.17 C 1.997,0.455 1.004,0.167 0,0" /></g><g
           transform="translate(226.9028,321.3369)"
           id="g224"><path
             id="path226"
             style="fill:#ffffff;fill-opacity:1;fill-rule:nonzero;stroke:none"
             d="m 0,0 c -1.241,-1.715 -1.465,-2.506 -1.552,-3.565 -0.046,-0.932 0.51,-1.338 1.511,-1.241 3.001,0.452 4.914,2.966 5.587,3.46 0.974,0.614 1.872,1.142 1.744,0.995 C 7.445,1.713 7.644,4.387 7.658,7.098 5.695,5.587 2.035,2.676 0,0 m 6.808,-4.197 c -3.015,-3.098 -7.387,-4.701 -10.591,-5.149 -3.202,-0.363 -4.857,0.171 -4.828,2.371 0.337,3.903 3.184,7.533 6.993,11.066 3.087,3.059 6.522,6.06 7.452,6.92 0.571,0.514 1.146,0.863 1.616,1.002 C 7.279,14.43 6.608,17.005 4.541,16.845 2.672,16.534 0.054,14.476 -1.132,13.1 c -0.183,-0.229 -1.125,-1.52 -1.793,-1.654 -1.134,-0.104 -2.752,0.808 -2.678,2.788 0.103,1.115 0.583,1.911 1.221,2.578 2.106,1.95 8.411,5.97 10.816,6.418 2.071,0.256 5.667,-0.228 7.45,-10.999 C 14.685,7.885 14.332,1.996 14.24,0.76 14.137,-0.539 13.675,-4.008 12.609,-6.43 12.223,-7.19 10.288,-7.708 9.554,-7.8 8.422,-7.91 6.42,-7.897 6.479,-6.019 c 0.111,0.614 0.217,1.203 0.329,1.822" /></g><g
           transform="translate(266.2339,324.645)"
           id="g228"><path
             id="path230"
             style="fill:#ffffff;fill-opacity:1;fill-rule:nonzero;stroke:none"
             d="m 0,0 c -0.161,-2.429 0.239,-3.61 2.495,-3.515 2.326,0.212 4.396,1.639 5.564,2.294 1.082,0.683 2.955,3.246 4.816,3.452 1.856,0.06 2.835,-0.924 2.804,-1.964 C 15.006,-3.629 5.553,-7.35 0.627,-7.875 c -6.765,-0.268 -7.745,2.936 -7.544,6.349 1.413,12.824 13.205,24.195 15.66,24.745 1.726,0.097 2.849,-0.644 2.698,-3.372 -0.17,-2.024 -0.717,-4.018 -2.53,-4.623 C 3.624,13.319 0.458,4.676 0,0" /></g><g
           transform="translate(291.7261,326.5054)"
           id="g232"><path
             id="path234"
             style="fill:#ffffff;fill-opacity:1;fill-rule:nonzero;stroke:none"
             d="m 0,0 c -1.235,-1.649 -1.459,-2.432 -1.547,-3.496 -0.043,-0.936 0.509,-1.391 1.502,-1.374 2.988,0.214 4.885,2.599 5.555,3.043 0.968,0.541 1.865,1.014 1.734,0.869 C 7.401,1.13 7.605,3.858 7.625,6.667 5.67,5.27 2.027,2.57 0,0 M 6.762,-4.811 C 3.763,-7.683 -0.58,-8.914 -3.765,-9.098 c -3.182,-0.099 -4.827,0.552 -4.799,2.746 0.334,3.879 3.169,7.361 6.965,10.698 3.074,2.906 6.5,5.747 7.426,6.569 0.569,0.487 1.139,0.803 1.609,0.905 -0.162,2.556 -0.821,5.365 -2.867,5.395 -1.86,-0.147 -4.468,-2.091 -5.651,-3.445 -0.186,-0.228 -1.124,-1.509 -1.788,-1.59 -1.125,-0.006 -2.728,1.115 -2.645,3.233 0.108,1.189 0.59,1.999 1.227,2.657 2.104,1.898 8.378,5.589 10.771,5.815 2.057,0.053 5.609,-1.005 7.344,-12.42 0.778,-4.615 0.418,-10.612 0.326,-11.862 -0.106,-1.313 -0.564,-4.788 -1.626,-7.12 -0.382,-0.731 -2.306,-1.087 -3.036,-1.12 -1.125,-0.016 -3.114,0.155 -3.057,2.025 0.111,0.605 0.216,1.189 0.328,1.801" /></g><g
           transform="translate(310.0601,340.5122)"
           id="g236"><path
             id="path238"
             style="fill:#ffffff;fill-opacity:1;fill-rule:nonzero;stroke:none"
             d="m 0,0 c -1.188,0.027 -1.856,1.303 -1.814,2.329 0.146,1.628 0.787,3.349 2.313,3.449 0.863,0.032 1.682,0.452 2.411,0.481 0.345,5.155 -0.221,9.271 0.123,13.55 0.225,2.355 1.385,4.739 3.575,4.858 C 9.049,24.618 9.976,22.363 9.874,20.319 9.742,18.276 9.701,11.528 9.42,7.484 10.29,7.695 10.731,8.273 11.792,8.302 13.174,8.25 14.009,6.821 13.973,4.875 13.882,3.279 13.085,2.29 12.409,2.008 11.381,1.593 10.204,1.423 9.528,1.256 9.426,-0.26 9.138,-8.358 9.219,-10.535 c -0.041,-2.24 -0.209,-9.41 -0.277,-10.507 -0.129,-1.038 -1.407,-2.302 -3.13,-2.372 -2.116,0.015 -3.609,0.678 -3.775,1.865 -0.029,1.205 0.171,7.251 0.362,9.936 C 2.588,-8.925 2.796,-1.454 2.91,0.292 1.976,0.192 0.993,0.024 0,0" /></g><g
           transform="translate(362.9233,331.9199)"
           id="g240"><path
             id="path242"
             style="fill:#ffffff;fill-opacity:1;fill-rule:nonzero;stroke:none"
             d="m 0,0 c 0.331,5.842 -0.336,10.508 -1.82,10.773 -2.718,-0.121 -7.322,-6.637 -7.822,-10.98 -0.198,-2.68 -0.319,-6.061 -0.142,-7.854 0.221,-1.534 0.616,-3.475 0.541,-4.755 -0.143,-1.337 -1.2,-1.925 -2.458,-1.963 -2.964,0.125 -3.153,0.518 -3.558,1.331 -0.509,1.882 -1.12,12.18 -1.216,15.407 0.052,6.604 -0.733,21.432 -0.08,31.304 0.645,7.644 2.206,10.197 5.638,10.073 2.029,-0.211 3.031,-2.438 2.884,-5.15 C -8.252,35.473 -8.821,31.813 -9.378,24.593 -9.719,19.618 -9.494,13.241 -9.703,8.37 c 1.037,3.318 5.56,8.832 11.372,8.69 C 5.653,16.58 7.784,10.302 7.046,-1.025 6.858,-3.183 5.824,-9.021 5.548,-11.559 5.386,-13.248 4.442,-14.684 1.342,-14.588 -0.684,-14.327 -1.663,-13.316 -1.6,-11.886 -1.407,-9.675 -0.46,-5.749 0,0" /></g><g
           transform="translate(391.1865,358.7642)"
           id="g244"><path
             id="path246"
             style="fill:#ffffff;fill-opacity:1;fill-rule:nonzero;stroke:none"
             d="M 0,0 C 1.918,3.913 3.142,8.313 4.729,8.244 6.868,7.814 8.362,4.726 8.324,3.146 8.208,2.202 6.98,-1.336 5.381,-4.391 3.903,-6.727 0.962,-8.979 -0.098,-8.959 -1.6,-8.76 -2.891,-7.719 -2.819,-5.893 -2.605,-4.07 -0.715,-1.351 0,0" /></g><g
           transform="translate(396.6084,332.3252)"
           id="g248"><path
             id="path250"
             style="fill:#ffffff;fill-opacity:1;fill-rule:nonzero;stroke:none"
             d="M 0,0 C 1.243,0.62 4.861,2.096 5.918,2.739 6.035,5.14 4.768,7.148 2.615,7.457 1.489,7.376 0.229,2.531 0,0 m -0.439,-6.694 c -0.189,-3.387 1.189,-5.257 2.095,-5.419 0.923,-0.056 2.169,0.598 4.009,2.108 1.121,0.947 2.663,2.583 4.399,3.873 1.119,0.781 1.729,1.155 2.584,1.081 1.568,-0.203 2.146,-0.964 2.076,-2.261 -0.349,-2.372 -4.656,-4.87 -7.216,-6.35 -1.378,-0.805 -6.672,-4.021 -8.324,-4.015 -4.299,0.631 -5.878,6.057 -5.636,10.396 0.001,0.022 0.003,0.043 0.005,0.065 -0.345,-0.104 -0.636,-0.14 -1.227,-0.093 -0.583,0.092 -1.107,1.18 -1.073,1.937 0.165,1.918 0.695,2.292 2.669,3.068 0.038,0.501 0.074,0.979 0.112,1.48 0.801,8.815 4.522,15.599 6.378,15.66 C 7.456,13.797 11.531,7.497 11.511,4.563 11.357,2.503 11.306,0.528 8.778,-1.041 6.757,-2.211 0.787,-4.878 -0.36,-5.634 -0.387,-5.998 -0.412,-6.331 -0.439,-6.694" /></g><g
           transform="translate(427.5605,313.5146)"
           id="g252"><path
             id="path254"
             style="fill:#ffffff;fill-opacity:1;fill-rule:nonzero;stroke:none"
             d="m 0,0 c 0.082,0.905 1.29,12.568 1.376,15.725 0.054,2.859 -0.453,6.291 -2.13,6.67 -1.785,0.075 -5.854,-3.983 -6.367,-8.712 -0.401,-6.356 1.096,-10.846 0.95,-13.818 -0.199,-1.295 -2.661,-1.641 -3.582,-1.557 -1.7,0.231 -3.028,0.92 -3.397,1.772 -0.468,1.963 -0.663,8.172 -0.698,10.353 0.017,6.866 -0.767,11.307 -0.593,14.286 0.287,2.408 2.75,3.686 3.737,3.613 2.354,-0.349 3.631,-1.096 3.745,-6.527 2.029,3.397 5.454,6.523 8.805,6.136 2.344,-0.434 4.421,-2.231 5.113,-5.401 2.351,2.822 6.751,4.142 10.092,3.618 3.218,-0.794 4.603,-6.107 4.639,-9.976 -0.008,-2.681 -0.107,-7.263 -0.245,-10.083 -0.134,-2.815 0.051,-5.902 -0.061,-7.643 -0.169,-1.733 -1.167,-3.148 -4.249,-2.728 -3.058,0.548 -3.362,2 -3.254,3.664 0.286,3.701 1.047,10.649 1.31,14.005 0.214,2.933 0.441,7.033 -1.614,7.543 C 11.48,21.243 10.336,20.387 7.771,17.982 7.739,17.683 7.679,10.164 7.563,7.548 7.424,4.737 7.433,1.653 7.312,-0.061 7.153,-1.77 6.336,-3.142 3.316,-2.842 0.574,-2.425 -0.087,-1.629 0,0" /></g><g
           transform="translate(470.3994,313.4014)"
           id="g256"><path
             id="path258"
             style="fill:#ffffff;fill-opacity:1;fill-rule:nonzero;stroke:none"
             d="m 0,0 c -1.216,-1.366 -1.439,-2.122 -1.524,-3.203 -0.047,-0.956 0.495,-1.57 1.47,-1.778 2.95,-0.467 4.809,1.582 5.469,1.884 0.954,0.332 1.851,0.618 1.705,0.488 C 7.273,-0.532 7.473,2.087 7.478,4.7 5.565,3.843 1.988,2.107 0,0 m 6.635,-6.494 c -2.958,-2.361 -7.229,-2.732 -10.368,-2.177 -3.12,0.639 -4.735,1.775 -4.698,4.087 0.349,4.043 3.129,6.855 6.852,9.187 3.012,2.08 6.359,3.859 7.261,4.378 0.557,0.306 1.113,0.45 1.573,0.433 -0.181,2.296 -0.874,4.821 -2.871,5.342 -1.839,0.319 -4.368,-0.725 -5.514,-1.638 -0.223,-0.191 -1.087,-1.075 -1.744,-0.993 -1.101,0.258 -2.69,1.655 -2.626,3.483 0.095,1.018 0.559,1.599 1.178,2.009 2.035,1.116 8.132,2.584 10.496,2.164 2.011,-0.47 5.557,-1.746 7.364,-12.162 0.806,-4.255 0.463,-9.999 0.373,-11.24 -0.107,-1.302 -0.573,-4.83 -1.63,-7.167 -0.386,-0.728 -2.271,-0.668 -2.992,-0.528 -1.102,0.249 -3.053,0.952 -2.986,2.964 0.113,0.627 0.219,1.23 0.332,1.858" /></g><g
           transform="translate(492.4883,346.5747)"
           id="g260"><path
             id="path262"
             style="fill:#ffffff;fill-opacity:1;fill-rule:nonzero;stroke:none"
             d="M 0,0 C 1.48,-0.499 3.369,-1.869 3.393,-3.526 3.309,-5.251 2.72,-8.413 2.385,-12.652 c -0.19,-3.527 0.823,-15.495 0.793,-19.3 0.006,-5.04 1.282,-11.84 1.208,-13.786 -0.201,-1.931 -1.534,-2.511 -3.557,-2.071 -1.878,0.47 -4.029,1.469 -4.122,3.219 0.001,2.069 -0.5,8.233 -0.468,14.245 -0.012,6.017 -1.463,16.754 -0.946,24.941 C -4.247,-0.261 -2.598,0.754 0,0" /></g><g
           transform="translate(504.7905,342.5854)"
           id="g264"><path
             id="path266"
             style="fill:#ffffff;fill-opacity:1;fill-rule:nonzero;stroke:none"
             d="m 0,0 c 1.473,-0.521 3.371,-1.866 3.401,-3.421 -0.072,-1.617 -0.648,-4.569 -0.97,-8.614 -0.174,-3.37 0.857,-15.066 0.827,-18.854 0.01,-5.014 1.275,-11.947 1.197,-13.938 -0.206,-1.976 -1.536,-2.554 -3.558,-2.069 -1.873,0.511 -4.022,1.574 -4.11,3.366 -0.002,2.116 -0.488,8.395 -0.458,14.373 -0.016,5.981 -1.491,16.483 -1,24.226 C -4.238,-0.073 -2.593,0.798 0,0" /></g><g
           transform="translate(329.4531,326.6611)"
           id="g268"><path
             id="path270"
             style="fill:#ffffff;fill-opacity:1;fill-rule:nonzero;stroke:none"
             d="m 0,0 c -0.161,-2.445 0.239,-3.67 2.478,-3.751 2.315,0.03 4.37,1.309 5.531,1.878 1.077,0.604 2.937,3.043 4.791,3.105 1.844,-0.089 2.818,-1.163 2.786,-2.206 -0.671,-3.892 -10.064,-6.88 -14.968,-7.023 -6.717,0.266 -7.698,3.561 -7.496,7.001 1.422,12.904 13.143,23.58 15.598,23.902 1.712,-0.07 2.826,-0.942 2.673,-3.7 C 11.221,17.158 10.679,15.186 8.874,14.731 3.608,13.265 0.459,4.706 0,0" /></g><g
           transform="translate(535.5796,300.4917)"
           id="g272"><path
             id="path274"
             style="fill:#3652ac;fill-opacity:1;fill-rule:nonzero;stroke:none"
             d="m 0,0 c -0.48,0.559 -0.81,1.138 -1.362,1.583 0.923,1.334 1.335,2.597 1.471,4.497 0.058,0.812 0.183,2.189 0.328,3.783 0.299,3.283 0.708,7.777 0.967,12.006 0.238,3.967 0.699,7.524 0.974,9.65 0.128,0.988 0.205,1.585 0.237,2.02 0.372,5.182 -3.282,9.372 -8.5,9.746 -2.189,0.157 -4.519,-0.682 -6.391,-2.304 -1.863,-1.613 -3.019,-3.755 -3.171,-5.876 -0.071,-0.979 -0.064,-3.055 -0.047,-6.643 0.016,-3.457 0.037,-7.758 -0.079,-9.381 -0.147,-2.038 -0.292,-5.865 -0.409,-8.94 -0.071,-1.881 -0.139,-3.657 -0.175,-4.167 -0.103,-1.437 0.06,-2.487 0.904,-3.747 -2.393,-1.324 -3.916,-3.763 -4.184,-6.453 -0.227,-2.275 0.395,-4.342 1.799,-5.979 1.816,-2.117 4.69,-3.253 8.785,-3.473 5.263,-0.281 10.841,1.945 11.319,6.747 C 2.675,-4.837 1.748,-2.038 0,0" /></g><g
           transform="translate(527.4546,300.1504)"
           id="g276"><path
             id="path278"
             style="fill:#ffffff;fill-opacity:1;fill-rule:nonzero;stroke:none"
             d="M 0,0 C 3.198,-0.202 5.804,-4.197 5.457,-5.993 5.181,-7.421 2.501,-8.414 -0.299,-8.264 -4.099,-8.06 -6.088,-6.829 -5.846,-4.396 -5.669,-2.62 -2.229,0.141 0,0 M 1.904,38.943 C 4.707,38.741 6.229,36.62 6.056,34.217 5.979,33.149 5.187,28.242 4.841,22.497 4.458,16.219 3.732,9.294 3.55,6.758 3.421,4.956 2.582,3.454 0.506,3.495 c -2.938,0.057 -3.829,2.084 -3.718,3.619 0.105,1.468 0.212,8.701 0.447,11.971 0.23,3.204 -0.013,14.089 0.126,16.025 0.13,1.802 2.474,3.981 4.543,3.833" /></g></g></g></g></svg>
